<mxfile host="app.diagrams.net" agent="Mozilla/5.0 (Windows NT 10.0; Win64; x64) AppleWebKit/537.36 (KHTML, like Gecko) Chrome/131.0.0.0 Safari/537.36" version="25.0.3">
  <diagram name="第 1 页" id="8JB1TgKFOo70qStH_vRq">
    <mxGraphModel dx="954" dy="558" grid="1" gridSize="10" guides="1" tooltips="1" connect="1" arrows="1" fold="1" page="1" pageScale="1" pageWidth="1169" pageHeight="827" math="0" shadow="0">
      <root>
        <mxCell id="0" />
        <mxCell id="1" parent="0" />
        <mxCell id="xsvIwzY6GRpyjDurPTpW-38" style="edgeStyle=orthogonalEdgeStyle;rounded=0;orthogonalLoop=1;jettySize=auto;html=1;exitX=0.5;exitY=1;exitDx=0;exitDy=0;shape=flexArrow;fillColor=#f8cecc;strokeColor=#b85450;" parent="1" source="xsvIwzY6GRpyjDurPTpW-43" edge="1">
          <mxGeometry relative="1" as="geometry">
            <mxPoint x="585.5" y="303.5" as="targetPoint" />
          </mxGeometry>
        </mxCell>
        <mxCell id="xsvIwzY6GRpyjDurPTpW-10" value="" style="pointerEvents=1;verticalLabelPosition=bottom;shadow=0;dashed=0;align=center;html=1;verticalAlign=top;shape=mxgraph.electrical.inductors.transformer_2;strokeWidth=3;direction=south;fillColor=#fff2cc;strokeColor=#d6b656;" parent="1" vertex="1">
          <mxGeometry x="500.5" y="123.5" width="170" height="90" as="geometry" />
        </mxCell>
        <mxCell id="xsvIwzY6GRpyjDurPTpW-15" value="Standard retrievers&lt;div&gt;&amp;nbsp;(such as BM25, cosine similarity, etc.)&lt;/div&gt;" style="text;html=1;align=center;verticalAlign=middle;whiteSpace=wrap;rounded=0;fontSize=20;" parent="1" vertex="1">
          <mxGeometry x="154.25" y="364" width="270" height="50" as="geometry" />
        </mxCell>
        <mxCell id="xsvIwzY6GRpyjDurPTpW-16" value="" style="verticalLabelPosition=bottom;html=1;verticalAlign=top;align=center;strokeColor=#b85450;fillColor=#f8cecc;shape=mxgraph.azure.file;pointerEvents=1;" parent="1" vertex="1">
          <mxGeometry x="736.13" y="307.5" width="35" height="46" as="geometry" />
        </mxCell>
        <mxCell id="xsvIwzY6GRpyjDurPTpW-17" value="second hop&amp;nbsp;&lt;div&gt;document&lt;/div&gt;" style="text;html=1;align=center;verticalAlign=middle;whiteSpace=wrap;rounded=0;strokeWidth=1;fontSize=20;" parent="1" vertex="1">
          <mxGeometry x="675.5" y="367.5" width="170" height="30" as="geometry" />
        </mxCell>
        <mxCell id="xsvIwzY6GRpyjDurPTpW-28" value="fine-tuned&amp;nbsp;&lt;div&gt;contriever&lt;/div&gt;" style="text;html=1;align=center;verticalAlign=middle;whiteSpace=wrap;rounded=0;fontSize=20;" parent="1" vertex="1">
          <mxGeometry x="505.5" y="367.5" width="170" height="30" as="geometry" />
        </mxCell>
        <mxCell id="xsvIwzY6GRpyjDurPTpW-33" value="" style="verticalLabelPosition=bottom;html=1;verticalAlign=top;align=center;strokeColor=#d79b00;fillColor=#ffe6cc;shape=mxgraph.azure.file;pointerEvents=1;" parent="1" vertex="1">
          <mxGeometry x="176" y="125.5" width="35" height="50" as="geometry" />
        </mxCell>
        <mxCell id="xsvIwzY6GRpyjDurPTpW-34" value="first hop&lt;div&gt;document&lt;/div&gt;" style="text;html=1;align=center;verticalAlign=middle;whiteSpace=wrap;rounded=0;strokeWidth=1;fontSize=20;" parent="1" vertex="1">
          <mxGeometry x="128" y="190" width="131" height="30" as="geometry" />
        </mxCell>
        <mxCell id="xsvIwzY6GRpyjDurPTpW-39" value="intermediate representations" style="text;html=1;align=center;verticalAlign=middle;whiteSpace=wrap;rounded=0;fontSize=20;" parent="1" vertex="1">
          <mxGeometry x="423" y="240" width="180" height="30" as="geometry" />
        </mxCell>
        <mxCell id="xsvIwzY6GRpyjDurPTpW-43" value="" style="rounded=0;whiteSpace=wrap;html=1;fillColor=none;strokeWidth=2;" parent="1" vertex="1">
          <mxGeometry x="568" y="98.5" width="35" height="130" as="geometry" />
        </mxCell>
        <mxCell id="tjRnIWz9lj-TlJLxw_ru-10" style="edgeStyle=orthogonalEdgeStyle;rounded=0;orthogonalLoop=1;jettySize=auto;html=1;shape=flexArrow;fillColor=#ffe6cc;strokeColor=#d79b00;" edge="1" parent="1">
          <mxGeometry relative="1" as="geometry">
            <mxPoint x="190" y="240" as="targetPoint" />
            <mxPoint x="260" y="329" as="sourcePoint" />
          </mxGeometry>
        </mxCell>
        <mxCell id="xsvIwzY6GRpyjDurPTpW-44" value="" style="sketch=0;outlineConnect=0;fillColor=#D79B00;strokeColor=#d79b00;dashed=0;verticalLabelPosition=bottom;verticalAlign=top;align=center;html=1;fontSize=12;fontStyle=0;aspect=fixed;pointerEvents=1;shape=mxgraph.aws4.redshift_query_editor_v20_light;" parent="1" vertex="1">
          <mxGeometry x="272.5" y="304" width="50" height="50" as="geometry" />
        </mxCell>
        <mxCell id="xsvIwzY6GRpyjDurPTpW-45" value="" style="sketch=0;outlineConnect=0;fillColor=#D79B00;strokeColor=#D79B00;dashed=0;verticalLabelPosition=bottom;verticalAlign=top;align=center;html=1;fontSize=12;fontStyle=0;aspect=fixed;pointerEvents=1;shape=mxgraph.aws4.question;" parent="1" vertex="1">
          <mxGeometry x="276.11" y="125.5" width="26.28" height="50" as="geometry" />
        </mxCell>
        <mxCell id="xsvIwzY6GRpyjDurPTpW-46" value="query" style="text;html=1;align=center;verticalAlign=middle;whiteSpace=wrap;rounded=0;strokeWidth=1;fontSize=20;" parent="1" vertex="1">
          <mxGeometry x="248" y="180.5" width="82.5" height="30" as="geometry" />
        </mxCell>
        <mxCell id="xsvIwzY6GRpyjDurPTpW-48" value="LLMs" style="text;html=1;align=center;verticalAlign=middle;whiteSpace=wrap;rounded=0;fontSize=20;fillColor=none;" parent="1" vertex="1">
          <mxGeometry x="490" y="93.5" width="60" height="30" as="geometry" />
        </mxCell>
        <mxCell id="xsvIwzY6GRpyjDurPTpW-49" value="" style="shape=image;html=1;verticalAlign=top;verticalLabelPosition=bottom;labelBackgroundColor=#ffffff;imageAspect=0;aspect=fixed;image=https://cdn4.iconfinder.com/data/icons/ionicons/512/icon-plus-round-128.png" parent="1" vertex="1">
          <mxGeometry x="220" y="125.5" width="50" height="50" as="geometry" />
        </mxCell>
        <mxCell id="xsvIwzY6GRpyjDurPTpW-51" value="" style="sketch=0;outlineConnect=0;fillColor=#B85450;strokeColor=#B85450;dashed=0;verticalLabelPosition=bottom;verticalAlign=top;align=center;html=1;fontSize=12;fontStyle=0;aspect=fixed;pointerEvents=1;shape=mxgraph.aws4.redshift_query_editor_v20_light;" parent="1" vertex="1">
          <mxGeometry x="564.25" y="307.5" width="50" height="50" as="geometry" />
        </mxCell>
        <mxCell id="xsvIwzY6GRpyjDurPTpW-53" value="" style="shape=flexArrow;endArrow=classic;html=1;rounded=0;fillColor=#f8cecc;strokeColor=#b85450;" parent="1" edge="1">
          <mxGeometry width="50" height="50" relative="1" as="geometry">
            <mxPoint x="625.5" y="332.5" as="sourcePoint" />
            <mxPoint x="725.5" y="332.5" as="targetPoint" />
          </mxGeometry>
        </mxCell>
        <mxCell id="xsvIwzY6GRpyjDurPTpW-54" value="" style="shape=flexArrow;endArrow=classic;html=1;rounded=0;fillColor=#ffe6cc;strokeColor=#d79b00;" parent="1" edge="1">
          <mxGeometry width="50" height="50" relative="1" as="geometry">
            <mxPoint x="310" y="160" as="sourcePoint" />
            <mxPoint x="490" y="160" as="targetPoint" />
          </mxGeometry>
        </mxCell>
        <mxCell id="xsvIwzY6GRpyjDurPTpW-55" value="" style="shape=flexArrow;endArrow=classic;html=1;rounded=0;fillColor=#ffe6cc;strokeColor=#d79b00;" parent="1" edge="1">
          <mxGeometry width="50" height="50" relative="1" as="geometry">
            <mxPoint x="291" y="220" as="sourcePoint" />
            <mxPoint x="291" y="290" as="targetPoint" />
          </mxGeometry>
        </mxCell>
        <mxCell id="xsvIwzY6GRpyjDurPTpW-56" style="edgeStyle=elbowEdgeStyle;rounded=0;orthogonalLoop=1;jettySize=auto;html=1;entryX=0.99;entryY=0.282;entryDx=0;entryDy=0;entryPerimeter=0;elbow=vertical;shape=flexArrow;fillColor=#f8cecc;strokeColor=#b85450;" parent="1" target="xsvIwzY6GRpyjDurPTpW-10" edge="1">
          <mxGeometry relative="1" as="geometry">
            <mxPoint x="760.5" y="293.5" as="sourcePoint" />
            <Array as="points">
              <mxPoint x="695.5" y="263.5" />
            </Array>
          </mxGeometry>
        </mxCell>
        <mxCell id="xsvIwzY6GRpyjDurPTpW-57" value="concat key value" style="text;html=1;align=center;verticalAlign=middle;whiteSpace=wrap;rounded=0;fontSize=20;" parent="1" vertex="1">
          <mxGeometry x="629.69" y="228.5" width="165.81" height="30" as="geometry" />
        </mxCell>
        <mxCell id="xsvIwzY6GRpyjDurPTpW-58" value="" style="shape=flexArrow;endArrow=classic;html=1;rounded=0;fillColor=#fff2cc;strokeColor=#d6b656;" parent="1" edge="1">
          <mxGeometry width="50" height="50" relative="1" as="geometry">
            <mxPoint x="666.13" y="168.01999999999998" as="sourcePoint" />
            <mxPoint x="715.5" y="168.5" as="targetPoint" />
          </mxGeometry>
        </mxCell>
        <mxCell id="xsvIwzY6GRpyjDurPTpW-62" value="answer" style="text;html=1;align=center;verticalAlign=middle;whiteSpace=wrap;rounded=0;fontSize=20;" parent="1" vertex="1">
          <mxGeometry x="730.5" y="184" width="60" height="30" as="geometry" />
        </mxCell>
        <mxCell id="xsvIwzY6GRpyjDurPTpW-66" value="" style="html=1;verticalLabelPosition=bottom;align=center;labelBackgroundColor=#ffffff;verticalAlign=top;strokeWidth=2;strokeColor=#d6b656;shadow=0;dashed=0;shape=mxgraph.ios7.icons.lightbulb;fillColor=#fff2cc;aspect=fixed;" parent="1" vertex="1">
          <mxGeometry x="741.3100000000001" y="134" width="38.38" height="50" as="geometry" />
        </mxCell>
        <mxCell id="xsvIwzY6GRpyjDurPTpW-67" style="edgeStyle=orthogonalEdgeStyle;rounded=0;orthogonalLoop=1;jettySize=auto;html=1;exitX=0.5;exitY=1;exitDx=0;exitDy=0;" parent="1" source="xsvIwzY6GRpyjDurPTpW-28" target="xsvIwzY6GRpyjDurPTpW-28" edge="1">
          <mxGeometry relative="1" as="geometry" />
        </mxCell>
        <mxCell id="tjRnIWz9lj-TlJLxw_ru-2" value="" style="verticalLabelPosition=bottom;html=1;verticalAlign=top;align=center;strokeColor=#d79b00;fillColor=#ffe6cc;shape=mxgraph.azure.file;pointerEvents=1;" vertex="1" parent="1">
          <mxGeometry x="431.75" y="302" width="35" height="50" as="geometry" />
        </mxCell>
        <mxCell id="tjRnIWz9lj-TlJLxw_ru-3" value="second hop&amp;nbsp;&lt;div&gt;document candidate set&lt;/div&gt;" style="text;html=1;align=center;verticalAlign=middle;whiteSpace=wrap;rounded=0;strokeWidth=1;fontSize=20;" vertex="1" parent="1">
          <mxGeometry x="390" y="368.5" width="131" height="30" as="geometry" />
        </mxCell>
        <mxCell id="tjRnIWz9lj-TlJLxw_ru-4" value="" style="shape=flexArrow;endArrow=classic;html=1;rounded=0;fillColor=#ffe6cc;strokeColor=#d79b00;" edge="1" parent="1">
          <mxGeometry width="50" height="50" relative="1" as="geometry">
            <mxPoint x="330" y="328.5" as="sourcePoint" />
            <mxPoint x="420" y="329" as="targetPoint" />
          </mxGeometry>
        </mxCell>
        <mxCell id="tjRnIWz9lj-TlJLxw_ru-5" value="" style="shape=flexArrow;endArrow=classic;html=1;rounded=0;fillColor=#f8cecc;strokeColor=#b85450;" edge="1" parent="1">
          <mxGeometry width="50" height="50" relative="1" as="geometry">
            <mxPoint x="490" y="332" as="sourcePoint" />
            <mxPoint x="560" y="332.5" as="targetPoint" />
          </mxGeometry>
        </mxCell>
      </root>
    </mxGraphModel>
  </diagram>
</mxfile>
